G04 #@! TF.GenerationSoftware,KiCad,Pcbnew,8.0.4+1*
G04 #@! TF.CreationDate,2024-10-21T12:07:58+00:00*
G04 #@! TF.ProjectId,KCD1-102-board,4b434431-2d31-4303-922d-626f6172642e,rev?*
G04 #@! TF.SameCoordinates,Original*
G04 #@! TF.FileFunction,Copper,L1,Top*
G04 #@! TF.FilePolarity,Positive*
%FSLAX46Y46*%
G04 Gerber Fmt 4.6, Leading zero omitted, Abs format (unit mm)*
G04 Created by KiCad (PCBNEW 8.0.4+1) date 2024-10-21 12:07:58*
%MOMM*%
%LPD*%
G01*
G04 APERTURE LIST*
G04 #@! TA.AperFunction,SMDPad,CuDef*
%ADD10R,10.000000X5.000000*%
G04 #@! TD*
G04 #@! TA.AperFunction,ComponentPad*
%ADD11O,8.000000X4.000000*%
G04 #@! TD*
G04 #@! TA.AperFunction,Conductor*
%ADD12C,0.200000*%
G04 #@! TD*
G04 APERTURE END LIST*
D10*
X90250000Y-70500000D03*
X90250000Y-64000000D03*
G04 #@! TA.AperFunction,SMDPad,CuDef*
G36*
G01*
X97712500Y-67524999D02*
X97712500Y-66275001D01*
G75*
G02*
X97962501Y-66025000I250001J0D01*
G01*
X98887499Y-66025000D01*
G75*
G02*
X99137500Y-66275001I0J-250001D01*
G01*
X99137500Y-67524999D01*
G75*
G02*
X98887499Y-67775000I-250001J0D01*
G01*
X97962501Y-67775000D01*
G75*
G02*
X97712500Y-67524999I0J250001D01*
G01*
G37*
G04 #@! TD.AperFunction*
G04 #@! TA.AperFunction,SMDPad,CuDef*
G36*
G01*
X100687500Y-67524999D02*
X100687500Y-66275001D01*
G75*
G02*
X100937501Y-66025000I250001J0D01*
G01*
X101862499Y-66025000D01*
G75*
G02*
X102112500Y-66275001I0J-250001D01*
G01*
X102112500Y-67524999D01*
G75*
G02*
X101862499Y-67775000I-250001J0D01*
G01*
X100937501Y-67775000D01*
G75*
G02*
X100687500Y-67524999I0J250001D01*
G01*
G37*
G04 #@! TD.AperFunction*
G04 #@! TA.AperFunction,SMDPad,CuDef*
G36*
G01*
X104750000Y-71250000D02*
X104750000Y-69750000D01*
G75*
G02*
X105000000Y-69500000I250000J0D01*
G01*
X105500000Y-69500000D01*
G75*
G02*
X105750000Y-69750000I0J-250000D01*
G01*
X105750000Y-71250000D01*
G75*
G02*
X105500000Y-71500000I-250000J0D01*
G01*
X105000000Y-71500000D01*
G75*
G02*
X104750000Y-71250000I0J250000D01*
G01*
G37*
G04 #@! TD.AperFunction*
X90250000Y-77000000D03*
G04 #@! TA.AperFunction,SMDPad,CuDef*
G36*
G01*
X104700000Y-64250000D02*
X104700000Y-62750000D01*
G75*
G02*
X104950000Y-62500000I250000J0D01*
G01*
X105450000Y-62500000D01*
G75*
G02*
X105700000Y-62750000I0J-250000D01*
G01*
X105700000Y-64250000D01*
G75*
G02*
X105450000Y-64500000I-250000J0D01*
G01*
X104950000Y-64500000D01*
G75*
G02*
X104700000Y-64250000I0J250000D01*
G01*
G37*
G04 #@! TD.AperFunction*
G04 #@! TA.AperFunction,SMDPad,CuDef*
G36*
G01*
X104700000Y-78250000D02*
X104700000Y-76750000D01*
G75*
G02*
X104950000Y-76500000I250000J0D01*
G01*
X105450000Y-76500000D01*
G75*
G02*
X105700000Y-76750000I0J-250000D01*
G01*
X105700000Y-78250000D01*
G75*
G02*
X105450000Y-78500000I-250000J0D01*
G01*
X104950000Y-78500000D01*
G75*
G02*
X104700000Y-78250000I0J250000D01*
G01*
G37*
G04 #@! TD.AperFunction*
D11*
X100000000Y-63500000D03*
X100000000Y-70500000D03*
X100000000Y-77500000D03*
D12*
X104500000Y-73750000D02*
X105250000Y-73000000D01*
X96850000Y-66900000D02*
X93250000Y-70500000D01*
X98425000Y-66900000D02*
X96850000Y-66900000D01*
X93250000Y-70500000D02*
X96500000Y-73750000D01*
X93250000Y-70500000D02*
X90250000Y-70500000D01*
X96500000Y-73750000D02*
X104500000Y-73750000D01*
X105250000Y-73000000D02*
X105250000Y-70500000D01*
X101400000Y-69100000D02*
X100000000Y-70500000D01*
X101400000Y-66900000D02*
X101400000Y-69100000D01*
X105200000Y-63500000D02*
X100000000Y-63500000D01*
X90750000Y-63500000D02*
X90250000Y-64000000D01*
X100000000Y-63500000D02*
X90750000Y-63500000D01*
X90750000Y-77500000D02*
X90250000Y-77000000D01*
X100000000Y-77500000D02*
X90750000Y-77500000D01*
X105200000Y-77500000D02*
X100000000Y-77500000D01*
M02*
