G04 #@! TF.GenerationSoftware,KiCad,Pcbnew,8.0.4+1*
G04 #@! TF.CreationDate,2024-10-21T12:07:58+00:00*
G04 #@! TF.ProjectId,KCD1-102-board,4b434431-2d31-4303-922d-626f6172642e,rev?*
G04 #@! TF.SameCoordinates,Original*
G04 #@! TF.FileFunction,Legend,Top*
G04 #@! TF.FilePolarity,Positive*
%FSLAX46Y46*%
G04 Gerber Fmt 4.6, Leading zero omitted, Abs format (unit mm)*
G04 Created by KiCad (PCBNEW 8.0.4+1) date 2024-10-21 12:07:58*
%MOMM*%
%LPD*%
G01*
G04 APERTURE LIST*
%ADD10C,0.150000*%
%ADD11C,0.120000*%
%ADD12R,10.000000X5.000000*%
%ADD13O,8.000000X4.000000*%
G04 APERTURE END LIST*
D10*
X85894819Y-70833333D02*
X86609104Y-70833333D01*
X86609104Y-70833333D02*
X86751961Y-70880952D01*
X86751961Y-70880952D02*
X86847200Y-70976190D01*
X86847200Y-70976190D02*
X86894819Y-71119047D01*
X86894819Y-71119047D02*
X86894819Y-71214285D01*
X85894819Y-69880952D02*
X85894819Y-70357142D01*
X85894819Y-70357142D02*
X86371009Y-70404761D01*
X86371009Y-70404761D02*
X86323390Y-70357142D01*
X86323390Y-70357142D02*
X86275771Y-70261904D01*
X86275771Y-70261904D02*
X86275771Y-70023809D01*
X86275771Y-70023809D02*
X86323390Y-69928571D01*
X86323390Y-69928571D02*
X86371009Y-69880952D01*
X86371009Y-69880952D02*
X86466247Y-69833333D01*
X86466247Y-69833333D02*
X86704342Y-69833333D01*
X86704342Y-69833333D02*
X86799580Y-69880952D01*
X86799580Y-69880952D02*
X86847200Y-69928571D01*
X86847200Y-69928571D02*
X86894819Y-70023809D01*
X86894819Y-70023809D02*
X86894819Y-70261904D01*
X86894819Y-70261904D02*
X86847200Y-70357142D01*
X86847200Y-70357142D02*
X86799580Y-70404761D01*
X85894819Y-64333333D02*
X86609104Y-64333333D01*
X86609104Y-64333333D02*
X86751961Y-64380952D01*
X86751961Y-64380952D02*
X86847200Y-64476190D01*
X86847200Y-64476190D02*
X86894819Y-64619047D01*
X86894819Y-64619047D02*
X86894819Y-64714285D01*
X86228152Y-63428571D02*
X86894819Y-63428571D01*
X85847200Y-63666666D02*
X86561485Y-63904761D01*
X86561485Y-63904761D02*
X86561485Y-63285714D01*
X85894819Y-77333333D02*
X86609104Y-77333333D01*
X86609104Y-77333333D02*
X86751961Y-77380952D01*
X86751961Y-77380952D02*
X86847200Y-77476190D01*
X86847200Y-77476190D02*
X86894819Y-77619047D01*
X86894819Y-77619047D02*
X86894819Y-77714285D01*
X85894819Y-76428571D02*
X85894819Y-76619047D01*
X85894819Y-76619047D02*
X85942438Y-76714285D01*
X85942438Y-76714285D02*
X85990057Y-76761904D01*
X85990057Y-76761904D02*
X86132914Y-76857142D01*
X86132914Y-76857142D02*
X86323390Y-76904761D01*
X86323390Y-76904761D02*
X86704342Y-76904761D01*
X86704342Y-76904761D02*
X86799580Y-76857142D01*
X86799580Y-76857142D02*
X86847200Y-76809523D01*
X86847200Y-76809523D02*
X86894819Y-76714285D01*
X86894819Y-76714285D02*
X86894819Y-76523809D01*
X86894819Y-76523809D02*
X86847200Y-76428571D01*
X86847200Y-76428571D02*
X86799580Y-76380952D01*
X86799580Y-76380952D02*
X86704342Y-76333333D01*
X86704342Y-76333333D02*
X86466247Y-76333333D01*
X86466247Y-76333333D02*
X86371009Y-76380952D01*
X86371009Y-76380952D02*
X86323390Y-76428571D01*
X86323390Y-76428571D02*
X86275771Y-76523809D01*
X86275771Y-76523809D02*
X86275771Y-76714285D01*
X86275771Y-76714285D02*
X86323390Y-76809523D01*
X86323390Y-76809523D02*
X86371009Y-76857142D01*
X86371009Y-76857142D02*
X86466247Y-76904761D01*
D11*
X97452500Y-65765000D02*
X97452500Y-68035000D01*
X97452500Y-68035000D02*
X101512500Y-68035000D01*
X101512500Y-65765000D02*
X97452500Y-65765000D01*
%LPC*%
D12*
X90250000Y-70500000D03*
X90250000Y-64000000D03*
G36*
G01*
X97712500Y-67524999D02*
X97712500Y-66275001D01*
G75*
G02*
X97962501Y-66025000I250001J0D01*
G01*
X98887499Y-66025000D01*
G75*
G02*
X99137500Y-66275001I0J-250001D01*
G01*
X99137500Y-67524999D01*
G75*
G02*
X98887499Y-67775000I-250001J0D01*
G01*
X97962501Y-67775000D01*
G75*
G02*
X97712500Y-67524999I0J250001D01*
G01*
G37*
G36*
G01*
X100687500Y-67524999D02*
X100687500Y-66275001D01*
G75*
G02*
X100937501Y-66025000I250001J0D01*
G01*
X101862499Y-66025000D01*
G75*
G02*
X102112500Y-66275001I0J-250001D01*
G01*
X102112500Y-67524999D01*
G75*
G02*
X101862499Y-67775000I-250001J0D01*
G01*
X100937501Y-67775000D01*
G75*
G02*
X100687500Y-67524999I0J250001D01*
G01*
G37*
G36*
G01*
X104750000Y-71250000D02*
X104750000Y-69750000D01*
G75*
G02*
X105000000Y-69500000I250000J0D01*
G01*
X105500000Y-69500000D01*
G75*
G02*
X105750000Y-69750000I0J-250000D01*
G01*
X105750000Y-71250000D01*
G75*
G02*
X105500000Y-71500000I-250000J0D01*
G01*
X105000000Y-71500000D01*
G75*
G02*
X104750000Y-71250000I0J250000D01*
G01*
G37*
X90250000Y-77000000D03*
G36*
G01*
X104700000Y-64250000D02*
X104700000Y-62750000D01*
G75*
G02*
X104950000Y-62500000I250000J0D01*
G01*
X105450000Y-62500000D01*
G75*
G02*
X105700000Y-62750000I0J-250000D01*
G01*
X105700000Y-64250000D01*
G75*
G02*
X105450000Y-64500000I-250000J0D01*
G01*
X104950000Y-64500000D01*
G75*
G02*
X104700000Y-64250000I0J250000D01*
G01*
G37*
G36*
G01*
X104700000Y-78250000D02*
X104700000Y-76750000D01*
G75*
G02*
X104950000Y-76500000I250000J0D01*
G01*
X105450000Y-76500000D01*
G75*
G02*
X105700000Y-76750000I0J-250000D01*
G01*
X105700000Y-78250000D01*
G75*
G02*
X105450000Y-78500000I-250000J0D01*
G01*
X104950000Y-78500000D01*
G75*
G02*
X104700000Y-78250000I0J250000D01*
G01*
G37*
D13*
X100000000Y-63500000D03*
X100000000Y-70500000D03*
X100000000Y-77500000D03*
%LPD*%
M02*
